<?xml version="1.0" encoding="UTF-8"?>
<svg version="1.1" xmlns="http://www.w3.org/2000/svg" width="1076" height="1076">
<path d="M0 0 C1.22778671 -0.00852997 2.45557343 -0.01705994 3.7205658 -0.02584839 C5.0681764 -0.02514946 6.4157869 -0.02422645 7.76339722 -0.02310181 C9.19307301 -0.02909116 10.62274558 -0.03589765 12.05241394 -0.04345703 C15.92672514 -0.06108821 19.80094791 -0.06581134 23.67529535 -0.0670886 C26.10063622 -0.06851301 28.52595481 -0.07278822 30.95129013 -0.07808304 C39.42659677 -0.0965776 47.9018406 -0.10475485 56.37716675 -0.10317993 C64.25357221 -0.10198043 72.12970281 -0.12304643 80.00603878 -0.15466726 C86.78592205 -0.18090743 93.56571601 -0.19154391 100.3456496 -0.19026911 C104.38698615 -0.18976151 108.42807859 -0.19533121 112.46936417 -0.21662521 C116.27639135 -0.23613729 120.08294495 -0.23604474 123.88998985 -0.22159195 C125.27821109 -0.21951831 126.66646297 -0.22411737 128.05463219 -0.23631287 C142.59331785 -0.35564625 153.204704 2.83496597 163.62936401 13.08773804 C169.28022834 19.15258782 173.41560925 25.87921342 177.52853394 33.01864624 C179.16955456 35.86715305 180.83286727 38.70243859 182.49462891 41.53887939 C183.34885752 42.99746106 184.20194403 44.45671221 185.05389404 45.91662598 C189.04569049 52.75164363 193.15046306 59.51412986 197.27853394 66.26742554 C203.76501578 76.89872034 210.14333792 87.59114447 216.48654175 98.30844116 C222.02558465 107.66426585 227.61849532 116.98432565 233.27853394 126.26742554 C239.76180181 136.90071398 246.14330736 147.59109284 252.48654175 158.30844116 C258.02558465 167.66426585 263.61849532 176.98432565 269.27853394 186.26742554 C275.76180181 196.90071398 282.14330736 207.59109284 288.48654175 218.30844116 C294.02558465 227.66426585 299.61849532 236.98432565 305.27853394 246.26742554 C311.76180181 256.90071398 318.14330736 267.59109284 324.48654175 278.30844116 C330.02558465 287.66426585 335.61849532 296.98432565 341.27853394 306.26742554 C347.76180181 316.90071398 354.14330736 327.59109284 360.48654175 338.30844116 C366.02558465 347.66426585 371.61849532 356.98432565 377.27853394 366.26742554 C383.76180181 376.90071398 390.14330736 387.59109284 396.48654175 398.30844116 C402.02558465 407.66426585 407.61849532 416.98432565 413.27853394 426.26742554 C419.76180181 436.90071398 426.14330736 447.59109284 432.48654175 458.30844116 C438.02558465 467.66426585 443.61849532 476.98432565 449.27853394 486.26742554 C455.76180181 496.90071398 462.14330736 507.59109284 468.48654175 518.30844116 C474.02558465 527.66426585 479.61849532 536.98432565 485.27853394 546.26742554 C491.75606757 556.89130919 498.13348848 567.57135865 504.46942139 578.28024292 C511.07039715 589.43447687 517.7611003 600.53132208 524.52462769 611.58773804 C525.18720581 612.67312866 525.84978394 613.75851929 526.53244019 614.87680054 C527.11324341 615.82522827 527.69404663 616.77365601 528.29244995 617.75082397 C531.19340352 622.66342943 532.9416143 626.45903727 531.77853394 632.26742554 C529.88656501 636.65569061 527.51662408 640.71781118 525.09103394 644.82992554 C524.46519409 645.92756226 523.83935425 647.02519897 523.19454956 648.15609741 C514.38145527 663.46596487 514.38145527 663.46596487 510.77853394 665.26742554 C509.2947656 665.36538715 507.8067788 665.40292363 506.3197937 665.40927124 C505.39445328 665.41630569 504.46911285 665.42334015 503.51573181 665.43058777 C502.51062057 665.43475204 501.50550934 665.43891632 500.46994019 665.44320679 C498.33907116 665.46642636 496.20821178 665.49054452 494.07736206 665.51547241 C490.72028358 665.55042416 487.36355445 665.57983485 484.00631714 665.59335327 C480.76459141 665.60896042 477.52389053 665.64927445 474.28244019 665.69320679 C473.29554703 665.69129837 472.30865387 665.68938995 471.29185486 665.68742371 C461.55467914 665.85579267 452.6398113 668.33893404 445.50119019 675.22836304 C439.95240171 681.79631674 437.06697727 689.63980098 437.77853394 698.26742554 C439.47338833 704.87216236 441.81562926 711.20472886 444.38400269 717.51107788 C444.73566026 718.38491969 445.08731783 719.2587615 445.44963169 720.15908337 C446.61768791 723.05883985 447.791917 725.95605586 448.96603394 728.85336304 C449.80891729 730.94310545 450.65134818 733.03303041 451.49336243 735.12312317 C453.30272778 739.61248031 455.11457936 744.10082232 456.92840576 748.58837891 C461.54469474 760.01058022 466.14564646 771.43896356 470.74703097 782.86717534 C471.50474975 784.74892173 472.26263384 786.63060147 473.0205555 788.51226616 C484.49622493 817.00414195 495.86598544 845.5377853 507.21603394 874.07992554 C508.12643346 876.3691308 509.03683384 878.65833571 509.94723511 880.94754028 C510.61123101 882.61728535 510.61123101 882.61728535 511.28864098 884.32076263 C512.16492313 886.52423869 513.04130638 888.72767455 513.91779518 890.93106842 C515.99109076 896.14361478 518.06249311 901.35689402 520.12921143 906.572052 C523.59128471 915.30236499 527.07241798 924.02204785 530.65792847 932.70248413 C531.50989898 934.77833514 532.36108987 936.85450433 533.21214485 938.93073082 C533.96741058 940.75983669 534.7379138 942.58262842 535.5091095 944.40507507 C539.99212185 955.33473159 539.99212185 955.33473159 538.77853394 961.26742554 C536.79248704 963.79352983 534.42655896 965.47607959 531.77853394 967.26742554 C531.08980194 967.75208282 530.40106995 968.23674011 529.69146729 968.73608398 C527.43511748 970.29117242 525.1503106 971.79348768 522.85275269 973.28695679 C522.02395096 973.83099655 521.19514923 974.37503632 520.3412323 974.93556213 C517.71914695 976.65495248 515.0925991 978.36738865 512.46603394 980.07992554 C510.68385369 981.24811949 508.90194992 982.41673535 507.12033081 983.58578491 C505.42721562 984.69488173 503.73386465 985.8036187 502.04025269 986.91195679 C501.24133102 987.43481766 500.44240936 987.95767853 499.61927795 988.49638367 C498.88123428 988.97746078 498.14319061 989.4585379 497.38278198 989.95419312 C496.73327072 990.37799759 496.08375946 990.80180206 495.41456604 991.2384491 C491.63572424 993.6151379 488.15140567 994.17319526 483.77853394 993.26742554 C476.7725026 988.78611007 471.31157277 981.53290283 465.81326416 975.35942823 C464.09917909 973.43569826 462.3787406 971.51782662 460.65660262 969.60130352 C458.12266937 966.78120464 455.59034056 963.95967956 453.05916214 961.13710785 C433.32869314 939.14831071 413.43330384 917.3197244 393.1847229 895.80647278 C392.35143456 894.9211177 391.51814622 894.03576263 390.65960672 893.12357862 C382.02673141 883.95635924 373.37480835 874.80736733 364.70384373 865.6761708 C360.24769184 860.98243452 355.79593811 856.28454884 351.34689331 851.58407593 C350.46167865 850.6489814 349.57646398 849.71388687 348.66442463 848.75045615 C336.28331292 835.65393237 324.15316494 822.36181548 312.19568039 808.87788903 C217.61725892 699.7766345 217.61725892 699.7766345 85.80506074 652.99608493 C15.37686075 649.00250089 -38.23606023 672.92146942 -90.24054241 719.26845243 C-123.07235218 748.92299029 -152.80733232 781.70616209 -182.1718235 814.73301226 C-194.45237603 828.52770856 -206.97379523 842.06898643 -219.6789856 855.47323608 C-220.58430136 856.42850927 -221.48961712 857.38378245 -222.42236669 858.3680033 C-226.96954591 863.16350963 -231.52084518 867.95508209 -236.07429051 872.74463832 C-244.89571216 882.02561013 -253.69026877 891.33190697 -262.47180176 900.65061951 C-263.31830384 901.5488935 -264.16480592 902.44716748 -265.03695957 903.3726619 C-286.2558262 925.90801778 -307.05474655 948.82255967 -327.75338745 971.83538818 C-328.38630112 972.53854569 -329.01921478 973.24170319 -329.67130765 973.9661685 C-332.60688157 977.22772678 -335.53943074 980.49185703 -338.46438086 983.7629475 C-339.47715318 984.89098153 -340.49000573 986.01894352 -341.50295448 987.14681911 C-342.8070769 988.6043756 -342.8070769 988.6043756 -344.13754523 990.09137768 C-346.97668428 993.05603082 -347.73840423 993.2281895 -351.92459106 993.56820679 C-356.36469063 993.49340727 -359.36588628 991.93076029 -362.97146606 989.45492554 C-363.61688354 989.03203247 -364.26230103 988.6091394 -364.92727661 988.1734314 C-367.37304235 986.55882339 -369.79605397 984.91245774 -372.22146606 983.26742554 C-373.36171103 982.50326862 -374.50253648 981.73997744 -375.64382935 980.97738647 C-379.44616318 978.43655168 -383.24193563 975.88610965 -387.03396606 973.32992554 C-387.66322998 972.90601532 -388.2924939 972.4821051 -388.94082642 972.04534912 C-390.75194998 970.82256605 -392.55954012 969.59474526 -394.36599731 968.36508179 C-395.94924805 967.29012451 -395.94924805 967.29012451 -397.56448364 966.19345093 C-398.87968994 965.24006836 -398.87968994 965.24006836 -400.22146606 964.26742554 C-401.14511963 963.6456543 -401.14511963 963.6456543 -402.08743286 963.01132202 C-404.02416619 960.03304729 -403.57819027 956.67755708 -403.22146606 953.26742554 C-402.38853667 950.116567 -401.19555519 947.15433184 -399.95657349 944.14315796 C-399.60534833 943.25825967 -399.25412317 942.37336138 -398.89225483 941.46164799 C-397.71684878 938.50999881 -396.52195453 935.56665143 -395.32693481 932.62289429 C-394.47911058 930.505591 -393.63250192 928.38780061 -392.78701782 926.26956177 C-390.48980444 920.52423286 -388.17563258 914.7858717 -385.85839462 909.04859543 C-383.42694288 903.02012658 -381.0112137 896.98536402 -378.59378052 890.95126343 C-374.54367361 880.84798177 -370.48404069 870.74857832 -366.41677856 860.65219116 C-360.85012485 846.83374933 -355.29738636 833.00976403 -349.74910545 819.18393517 C-343.26201915 803.01919082 -336.77232995 786.85549954 -330.26739407 770.69792843 C-328.19561879 765.55179011 -326.12550057 760.40500434 -324.06025696 755.25624084 C-320.72555188 746.94629295 -317.38605481 738.63946479 -313.96616268 730.36413097 C-312.6294203 727.1269634 -311.30304593 723.88559986 -309.9777317 720.6437397 C-309.37433241 719.17648813 -308.76567233 717.71138591 -308.15106773 716.24879265 C-303.64154689 705.51603763 -300.25872826 695.89708037 -304.28005981 684.48226929 C-307.19062339 677.63459481 -311.87743802 672.34037506 -318.61151123 669.12690735 C-325.45804127 666.50584349 -331.32453364 665.72593569 -338.61990356 665.83383179 C-340.74881059 665.82423746 -342.87771683 665.81446677 -345.00662231 665.80453491 C-348.31806758 665.81316746 -351.6293215 665.83014381 -354.94070435 665.85214233 C-358.16748907 665.86663459 -361.393159 665.85144526 -364.61990356 665.83383179 C-365.60953094 665.85031265 -366.59915833 665.86679352 -367.61877441 665.8837738 C-372.1267523 665.8509679 -374.46152753 665.82728409 -378.16653442 663.0977478 C-380.21938016 660.27029851 -382.02617646 657.48237509 -383.70193481 654.41586304 C-384.61169067 652.76844116 -384.61169067 652.76844116 -385.53982544 651.08773804 C-386.46505005 649.38230835 -386.46505005 649.38230835 -387.40896606 647.64242554 C-388.65159379 645.37893134 -389.89504542 643.11588921 -391.13943481 640.85336304 C-391.68366089 639.85353394 -392.22788696 638.85370483 -392.78860474 637.82357788 C-394.24438935 635.14960625 -394.24438935 635.14960625 -396.22146606 632.26742554 C-396.75820263 626.32013767 -395.93860902 622.61843157 -392.78396606 617.51742554 C-392.3912854 616.85098022 -391.99860474 616.18453491 -391.59402466 615.49789429 C-390.15667932 613.07507807 -388.69018358 610.67135015 -387.22146606 608.26742554 C-385.9827464 606.22081582 -384.74449672 604.17392161 -383.50662231 602.12680054 C-381.39170853 598.63588509 -379.27406632 595.14675559 -377.14749146 591.66293335 C-371.60061033 582.57286638 -366.14350017 573.43242292 -360.72146606 564.26742554 C-354.44156141 553.65579549 -348.09853637 543.08642557 -341.67947388 532.55844116 C-335.95694671 523.16899995 -330.32206725 513.73004193 -324.72146606 504.26742554 C-318.44099749 493.65612455 -312.09854106 483.08643326 -305.67947388 472.55844116 C-299.95694671 463.16899995 -294.32206725 453.73004193 -288.72146606 444.26742554 C-282.44099749 433.65612455 -276.09854106 423.08643326 -269.67947388 412.55844116 C-263.95694671 403.16899995 -258.32206725 393.73004193 -252.72146606 384.26742554 C-246.44099749 373.65612455 -240.09854106 363.08643326 -233.67947388 352.55844116 C-227.95694671 343.16899995 -222.32206725 333.73004193 -216.72146606 324.26742554 C-210.44099749 313.65612455 -204.09854106 303.08643326 -197.67947388 292.55844116 C-191.95694671 283.16899995 -186.32206725 273.73004193 -180.72146606 264.26742554 C-174.44099749 253.65612455 -168.09854106 243.08643326 -161.67947388 232.55844116 C-155.95694671 223.16899995 -150.32206725 213.73004193 -144.72146606 204.26742554 C-138.44099749 193.65612455 -132.09854106 183.08643326 -125.67947388 172.55844116 C-119.95694671 163.16899995 -114.32206725 153.73004193 -108.72146606 144.26742554 C-102.44099749 133.65612455 -96.09854106 123.08643326 -89.67947388 112.55844116 C-83.95694578 103.16899843 -78.32216453 93.72998565 -72.72146606 84.26742554 C-65.94159775 72.81333652 -59.10049739 61.39947026 -52.16091919 50.04135132 C-48.99974338 44.86286592 -45.86024995 39.67699577 -42.81130981 34.43148804 C-28.6783575 10.17486963 -28.6783575 10.17486963 -16.28396606 4.14242554 C-15.65619263 3.83047241 -15.02841919 3.51851929 -14.38162231 3.19711304 C-9.50406314 1.09791035 -5.32578968 0.01679385 0 0 Z M51.73312378 250.09628296 C47.27113668 255.05262211 44.19886268 261.12744325 40.90353394 266.89242554 C39.64036845 269.06739609 38.37255005 271.23961436 37.10476685 273.41189575 C36.24461641 274.88678312 35.38602091 276.36257839 34.52896118 277.83926392 C30.54041153 284.70763831 26.42342228 291.49263643 22.27853394 298.26742554 C16.20289914 308.22315976 10.21903157 318.23052978 4.27853394 328.26742554 C-1.66200695 338.30439438 -7.65029115 348.30892206 -13.72146606 358.26742554 C-20.03354277 368.62668372 -26.27541242 379.02584125 -32.47146606 389.45492554 C-32.87615112 390.13514771 -33.28083618 390.81536987 -33.69778442 391.51620483 C-44.23540222 407.25696005 -44.23540222 407.25696005 -47.22146606 425.26742554 C-45.10009367 432.10295879 -41.2566816 437.40913031 -35.15896606 441.14242554 C-29.92354542 443.14748025 -25.02988925 443.41457459 -19.46762085 443.40786743 C-18.69382387 443.41083855 -17.92002689 443.41380968 -17.12278152 443.41687083 C-14.53359504 443.42553252 -11.94445493 443.42706394 -9.35525513 443.42855835 C-7.4972219 443.43318831 -5.63918962 443.43821321 -3.78115845 443.44360352 C1.26444304 443.45671225 6.31003123 443.46316948 11.35564709 443.46761417 C14.50945145 443.47054732 17.6632522 443.47465259 20.81705475 443.47911835 C30.68899829 443.49278917 40.56093354 443.5024579 50.43288589 443.50632024 C61.82044011 443.51080031 73.20787427 443.52834762 84.59539199 443.55732083 C93.40320638 443.57895105 102.21098702 443.58902523 111.01882768 443.59036136 C116.2767869 443.59140841 121.53463318 443.59729503 126.79256439 443.61518097 C131.74035534 443.6316848 136.68794874 443.63380589 141.63575745 443.62504196 C143.44772624 443.62427283 145.25970575 443.62859789 147.07164764 443.63850021 C163.48136588 443.84713035 163.48136588 443.84713035 177.34103394 435.81430054 C182.0246819 430.77428806 183.20456737 425.47782772 183.03170776 418.78182983 C182.08536702 409.38321529 174.86894274 400.40210521 170.09103394 392.45492554 C169.23783045 391.02739366 168.38497147 389.59965583 167.53244019 388.17172241 C161.47161521 378.03337473 155.34311423 367.93624519 149.19577026 357.85018921 C143.41214737 348.35317692 137.73407734 338.79538488 132.07052612 329.22640991 C125.85912004 318.73491753 119.57150915 308.29340201 113.21456909 297.88949585 C109.33030773 291.52326485 105.50679735 285.12549841 101.73947144 278.68930054 C100.88339652 277.23094086 100.02727695 275.7726074 99.17111206 274.31430054 C97.53276689 271.52278942 95.90561011 268.72515983 94.28439331 265.92367554 C86.93578716 252.56365759 86.93578716 252.56365759 74.77853394 244.26742554 C65.91546632 242.13154397 58.59378503 244.0049474 51.73312378 250.09628296 Z " fill="#070707" transform="translate(477.2214660644531,-0.267425537109375)"/>
</svg>
